<svg width="144" height="146" viewBox="0 0 144 146" fill="none" xmlns="http://www.w3.org/2000/svg">
<ellipse cx="3.27273" cy="49.7729" rx="3.27273" ry="3.31818" fill="white"/>
<ellipse cx="49.0909" cy="49.7728" rx="3.27273" ry="3.31818" fill="white"/>
<ellipse cx="94.9091" cy="49.7728" rx="3.27273" ry="3.31818" fill="white"/>
<ellipse cx="140.727" cy="49.7728" rx="3.27273" ry="3.31818" fill="white"/>
<ellipse cx="3.27273" cy="96.2272" rx="3.27273" ry="3.31818" fill="white"/>
<ellipse cx="49.0909" cy="96.2271" rx="3.27273" ry="3.31818" fill="white"/>
<ellipse cx="94.9091" cy="96.2271" rx="3.27273" ry="3.31818" fill="white"/>
<ellipse cx="140.727" cy="96.2271" rx="3.27273" ry="3.31818" fill="white"/>
<ellipse cx="3.27273" cy="142.682" rx="3.27273" ry="3.31818" fill="white"/>
<ellipse cx="49.0909" cy="142.682" rx="3.27273" ry="3.31818" fill="white"/>
<ellipse cx="94.9091" cy="142.682" rx="3.27273" ry="3.31818" fill="white"/>
<ellipse cx="140.727" cy="142.682" rx="3.27273" ry="3.31818" fill="white"/>
<ellipse cx="3.27273" cy="3.31818" rx="3.27273" ry="3.31818" fill="white"/>
<ellipse cx="49.0909" cy="3.31818" rx="3.27273" ry="3.31818" fill="white"/>
<ellipse cx="94.9091" cy="3.31818" rx="3.27273" ry="3.31818" fill="white"/>
<ellipse cx="140.727" cy="3.31818" rx="3.27273" ry="3.31818" fill="white"/>
</svg>
