<svg width="287" height="289" viewBox="0 0 287 289" fill="none" xmlns="http://www.w3.org/2000/svg">
<rect x="39" y="2" width="246" height="246" stroke="#FFBD59" stroke-width="4"/>
<ellipse cx="3.27273" cy="192.773" rx="3.27273" ry="3.31818" fill="white"/>
<ellipse cx="49.091" cy="192.773" rx="3.27273" ry="3.31818" fill="white"/>
<ellipse cx="94.9091" cy="192.773" rx="3.27273" ry="3.31818" fill="white"/>
<ellipse cx="140.727" cy="192.773" rx="3.27273" ry="3.31818" fill="white"/>
<ellipse cx="3.27273" cy="239.227" rx="3.27273" ry="3.31818" fill="white"/>
<ellipse cx="49.091" cy="239.227" rx="3.27273" ry="3.31818" fill="white"/>
<ellipse cx="94.9091" cy="239.227" rx="3.27273" ry="3.31818" fill="white"/>
<ellipse cx="140.727" cy="239.227" rx="3.27273" ry="3.31818" fill="white"/>
<ellipse cx="3.27273" cy="285.682" rx="3.27273" ry="3.31818" fill="white"/>
<ellipse cx="49.091" cy="285.682" rx="3.27273" ry="3.31818" fill="white"/>
<ellipse cx="94.9091" cy="285.682" rx="3.27273" ry="3.31818" fill="white"/>
<ellipse cx="140.727" cy="285.682" rx="3.27273" ry="3.31818" fill="white"/>
<ellipse cx="3.27273" cy="146.318" rx="3.27273" ry="3.31818" fill="white"/>
<ellipse cx="49.091" cy="146.318" rx="3.27273" ry="3.31818" fill="white"/>
<ellipse cx="94.9091" cy="146.318" rx="3.27273" ry="3.31818" fill="white"/>
<ellipse cx="140.727" cy="146.318" rx="3.27273" ry="3.31818" fill="white"/>
</svg>
