<svg width="545" height="477" viewBox="0 0 545 477" fill="none" xmlns="http://www.w3.org/2000/svg">
<g style="mix-blend-mode:multiply" opacity="0.47">
<g style="mix-blend-mode:multiply" opacity="0.47">
<path d="M419.435 132.075L519.613 105.249C525.254 103.738 530.063 100.051 532.983 94.9969C535.902 89.943 536.693 83.9371 535.182 78.3004C533.67 72.6637 529.98 67.8579 524.923 64.9402C519.866 62.0224 513.856 61.2319 508.216 62.7423L350.369 105.007C347.576 105.755 344.663 105.946 341.796 105.568C338.929 105.191 336.165 104.253 333.661 102.809C331.157 101.364 328.962 99.4403 327.202 97.1479C325.442 94.8554 324.151 92.2389 323.402 89.4478C321.891 83.8115 322.683 77.8062 325.602 72.7529C328.522 67.6995 333.33 64.012 338.97 62.5013L410.82 43.2565C413.613 42.5089 416.232 41.2188 418.526 39.4599C420.82 37.701 422.745 35.5077 424.191 33.0053C425.637 30.5028 426.575 27.7403 426.953 24.8753C427.331 22.0104 427.14 19.0992 426.391 16.308C424.88 10.6713 421.19 5.86545 416.132 2.94774C411.075 0.0300263 405.065 -0.760566 399.425 0.749882L34.4223 98.4831C31.6293 99.2308 29.0111 100.521 26.7171 102.28C24.4232 104.039 22.4983 106.232 21.0526 108.734C19.6068 111.237 18.6684 113.999 18.291 116.864C17.9135 119.729 18.1044 122.64 18.8528 125.431C19.6007 128.222 20.8915 130.839 22.6517 133.132C24.4118 135.426 26.6067 137.35 29.111 138.795C31.6154 140.24 34.3801 141.178 37.2472 141.555C40.1144 141.933 43.0278 141.742 45.8212 140.994L102.653 125.776C108.294 124.266 114.304 125.056 119.361 127.974C124.418 130.892 128.108 135.698 129.62 141.335C130.368 144.126 130.559 147.037 130.182 149.902C129.804 152.766 128.866 155.529 127.42 158.031C125.974 160.533 124.049 162.727 121.755 164.486C119.461 166.244 116.843 167.535 114.05 168.282L16.7705 194.331C11.13 195.841 6.32087 199.529 3.40106 204.583C0.481246 209.637 -0.310125 215.642 1.20102 221.279C1.94932 224.07 3.24042 226.687 5.0006 228.979C6.76077 231.272 8.95556 233.195 11.4596 234.64C13.9637 236.085 16.728 237.023 19.5948 237.4C22.4615 237.777 25.3745 237.586 28.1674 236.838L88.8774 220.581C94.518 219.071 100.528 219.862 105.585 222.78C110.642 225.698 114.332 230.504 115.844 236.14C116.592 238.932 116.783 241.843 116.406 244.707C116.028 247.572 115.09 250.334 113.644 252.837C112.198 255.339 110.273 257.532 107.979 259.291C105.685 261.05 103.067 262.34 100.274 263.088L95.9667 264.242C93.1727 264.99 90.5536 266.281 88.259 268.041C85.9645 269.801 84.0395 271.996 82.594 274.499C81.1484 277.003 80.2108 279.767 79.8345 282.633C79.4583 285.499 79.6508 288.411 80.4011 291.203C81.1493 293.994 82.4403 296.611 84.2005 298.903C85.9606 301.196 88.1554 303.119 90.6595 304.564C93.1635 306.009 95.9279 306.947 98.7947 307.324C101.661 307.702 104.575 307.511 107.368 306.763L111.452 305.669C114.245 304.922 117.158 304.731 120.025 305.108C122.892 305.485 125.656 306.423 128.16 307.868C130.664 309.313 132.859 311.236 134.619 313.529C136.379 315.821 137.67 318.438 138.418 321.229C139.166 324.02 139.357 326.931 138.98 329.795C138.603 332.66 137.665 335.423 136.219 337.925C134.773 340.428 132.848 342.621 130.555 344.38C128.261 346.139 125.642 347.429 122.849 348.177L62.3632 364.373C56.7227 365.883 51.9137 369.571 48.9941 374.625C46.0744 379.679 45.2833 385.685 46.7948 391.321C48.3062 396.958 51.9964 401.764 57.0536 404.682C62.1108 407.599 68.1207 408.39 73.7612 406.879L184.285 377.284C187.078 376.536 189.991 376.346 192.858 376.723C195.724 377.1 198.489 378.038 200.993 379.483C203.497 380.927 205.692 382.851 207.452 385.143C209.212 387.436 210.503 390.052 211.251 392.843C212 395.635 212.191 398.546 211.813 401.411C211.436 404.276 210.497 407.039 209.051 409.541C207.605 412.044 205.68 414.237 203.386 415.996C201.092 417.755 198.473 419.045 195.68 419.793L177.967 424.535C172.327 426.046 167.518 429.734 164.598 434.787C161.678 439.841 160.887 445.847 162.398 451.484C163.147 454.275 164.438 456.891 166.198 459.183C167.958 461.476 170.153 463.399 172.657 464.844C175.161 466.289 177.926 467.227 180.792 467.604C183.659 467.981 186.572 467.79 189.365 467.042L470.788 391.685C476.428 390.174 481.237 386.487 484.157 381.433C487.077 376.379 487.868 370.373 486.356 364.736C485.608 361.945 484.317 359.329 482.557 357.036C480.796 354.744 478.602 352.82 476.098 351.375C473.594 349.931 470.829 348.993 467.962 348.616C465.096 348.239 462.183 348.429 459.39 349.177L451.111 351.394C445.471 352.905 439.462 352.115 434.405 349.198C429.348 346.281 425.657 341.476 424.145 335.84C423.396 333.049 423.206 330.138 423.583 327.273C423.961 324.408 424.9 321.645 426.346 319.143C427.792 316.641 429.717 314.448 432.011 312.689C434.305 310.93 436.924 309.64 439.717 308.893L494.155 294.313C496.948 293.565 499.566 292.275 501.86 290.516C504.154 288.757 506.079 286.564 507.524 284.061C508.97 281.559 509.908 278.796 510.286 275.932C510.663 273.067 510.472 270.156 509.724 267.365C508.976 264.574 507.685 261.957 505.924 259.665C504.164 257.372 501.969 255.449 499.465 254.004C496.961 252.559 494.197 251.621 491.33 251.244C488.464 250.867 485.551 251.058 482.758 251.806L405.568 272.472C402.775 273.22 399.862 273.411 396.995 273.034C394.128 272.657 391.364 271.719 388.86 270.274C386.356 268.829 384.161 266.906 382.401 264.613C380.641 262.321 379.35 259.704 378.601 256.913C377.092 251.277 377.884 245.272 380.804 240.219C383.724 235.167 388.532 231.48 394.172 229.97L448.827 215.335C451.62 214.587 454.238 213.297 456.532 211.538C458.826 209.779 460.751 207.585 462.197 205.083C463.643 202.58 464.581 199.818 464.958 196.953C465.335 194.088 465.144 191.177 464.396 188.386C463.649 185.594 462.358 182.977 460.598 180.683C458.839 178.39 456.644 176.465 454.14 175.02C451.636 173.574 448.871 172.635 446.004 172.258C443.137 171.88 440.223 172.071 437.429 172.818L430.834 174.584C425.194 176.095 419.184 175.304 414.127 172.387C409.069 169.469 405.379 164.663 403.868 159.026C403.119 156.235 402.928 153.324 403.305 150.459C403.682 147.594 404.62 144.831 406.065 142.328C407.511 139.826 409.436 137.632 411.73 135.873C414.024 134.113 416.642 132.823 419.435 132.075Z" fill="#FFBD59"/>
</g>
<g style="mix-blend-mode:multiply" opacity="0.47">
<path d="M511.492 152.987L505.699 154.539C493.953 157.684 486.983 169.749 490.13 181.487L490.131 181.491C493.278 193.229 505.351 200.195 517.097 197.049L522.891 195.498C534.636 192.353 541.607 180.288 538.46 168.55L538.459 168.546C535.311 156.808 523.238 149.842 511.492 152.987Z" fill="#FFBD59"/>
</g>
</g>
<path d="M319.426 385.614C319.426 401.87 316.017 417.427 309.725 433.246C309.55 433.771 309.288 434.295 309.025 434.907C302.733 449.94 293.731 464.973 282.806 473.8C271.531 464.71 262.354 449.066 255.974 433.596C255.886 433.509 255.886 433.421 255.799 433.246C249.506 417.427 246.098 401.87 246.098 385.614C246.098 380.632 246.447 375.737 247.059 370.668C249.157 353.713 260.693 333.261 275.114 331.076C275.289 331.076 275.464 330.989 275.639 330.989C280.184 330.464 284.816 330.464 289.361 330.901C289.535 330.901 289.798 330.901 289.972 330.989C304.655 332.824 316.454 353.538 318.552 370.668C319.076 375.737 319.426 380.632 319.426 385.614Z" fill="#F4A045"/>
<path d="M319.426 385.614C319.426 401.87 316.017 417.427 309.725 433.246C309.55 433.771 309.288 434.295 309.025 434.907C302.733 449.94 293.731 464.973 282.806 473.8C271.531 464.71 262.354 449.066 255.974 433.596C255.886 433.509 255.886 433.421 255.799 433.246C249.506 417.427 246.098 401.87 246.098 385.614C246.098 380.632 246.447 375.737 247.059 370.668C249.157 353.713 260.693 333.261 275.114 331.076C275.289 331.076 275.464 330.989 275.639 330.989C280.184 330.464 284.816 330.464 289.361 330.901C289.535 330.901 289.798 330.901 289.972 330.989C304.655 332.824 316.454 353.538 318.552 370.668C319.076 375.737 319.426 380.632 319.426 385.614Z" stroke="#0E0E0E" stroke-width="6" stroke-miterlimit="10" stroke-linecap="round" stroke-linejoin="round"/>
<path d="M278.785 330.814C270.57 331.863 264.015 343.399 262.791 352.926C262.441 355.723 262.267 358.432 262.267 361.229C262.267 370.319 264.189 378.971 267.685 387.798C271.181 396.451 276.425 405.278 282.718 410.348C289.098 405.278 294.255 396.451 297.751 387.798C301.247 378.971 303.17 370.319 303.17 361.229C303.17 358.432 302.995 355.723 302.645 352.926C301.422 343.312 294.867 331.863 286.651 330.814C284.117 330.552 281.407 330.552 278.785 330.814Z" fill="#E36535"/>
<path d="M278.785 330.814C270.57 331.863 264.015 343.399 262.791 352.926C262.441 355.723 262.267 358.432 262.267 361.229C262.267 370.319 264.189 378.971 267.685 387.798C271.181 396.451 276.425 405.278 282.718 410.348C289.098 405.278 294.255 396.451 297.751 387.798C301.247 378.971 303.17 370.319 303.17 361.229C303.17 358.432 302.995 355.723 302.645 352.926C301.422 343.312 294.867 331.863 286.651 330.814C284.117 330.552 281.407 330.552 278.785 330.814Z" stroke="#0E0E0E" stroke-width="6" stroke-miterlimit="10" stroke-linecap="round" stroke-linejoin="round"/>
<path d="M177.314 197.354L148.822 208.454V154.354L236.309 86.0946V188.44L215.158 199.539C203.884 193.596 190.162 192.373 177.314 197.354Z" fill="#0E0E0E"/>
<path d="M139.557 222.613C130.643 209.678 125.486 194.383 125.486 178.039C125.486 157.325 133.614 138.36 147.161 123.764C160.708 138.36 168.924 157.325 169.011 178.039C169.011 194.47 163.854 209.678 155.027 222.613H139.557Z" fill="#0E0E0E"/>
<path opacity="0.72" d="M148.822 208.454L177.139 197.442C177.489 189.925 176.965 182.234 175.566 174.543C173.469 163.006 169.536 152.169 164.117 142.38L148.822 154.354V208.454Z" fill="#0E0E0E"/>
<path opacity="0.23" d="M152.493 169.474L236.396 104.099V86.0946L148.822 154.266V208.454L152.493 207.056V169.474Z" fill="#F4A15D"/>
<path opacity="0.72" d="M201.524 194.907C206.331 195.694 210.876 197.267 215.158 199.539L236.309 188.44V86.0946L199.426 114.849C197.591 125.949 196.717 137.573 196.717 149.547C196.804 165.366 198.465 180.661 201.524 194.907Z" fill="#0E0E0E"/>
<path d="M177.314 197.354L148.822 208.454V154.354L236.309 86.0946V188.44L215.158 199.539C203.884 193.596 190.162 192.373 177.314 197.354Z" stroke="#0E0E0E" stroke-width="6" stroke-miterlimit="10" stroke-linecap="round" stroke-linejoin="round"/>
<path d="M139.557 222.613C130.643 209.678 125.486 194.383 125.486 178.039C125.486 157.325 133.614 138.36 147.161 123.764C160.708 138.36 168.924 157.325 169.011 178.039C169.011 194.47 163.854 209.678 155.027 222.613H139.557Z" fill="#0E0E0E"/>
<path opacity="0.23" d="M145.85 123.764C146.899 124.9 147.948 126.124 148.909 127.347C139.819 141.331 134.575 157.762 134.488 175.242C134.488 192.548 137.11 208.716 146.025 222.7H137.984C129.157 209.765 124 194.47 124 178.127C124.087 157.325 132.303 138.36 145.85 123.764Z" fill="#F4A15D"/>
<path opacity="0.32" d="M145.85 123.764C146.2 124.114 146.549 124.551 146.899 124.988C136.673 140.108 130.817 157.85 130.73 176.903C130.73 193.422 135.187 208.979 142.966 222.7H137.984C129.157 209.765 124 194.47 124 178.127C124.087 157.325 132.303 138.36 145.85 123.764Z" fill="#F4A15D"/>
<path opacity="0.37" d="M169.011 178.039C169.011 157.325 160.795 138.447 147.161 123.764C146.112 124.9 145.063 126.124 144.102 127.347C153.192 141.331 158.435 157.762 158.523 175.242C158.523 192.548 153.454 208.716 144.539 222.7H155.027C163.854 209.678 169.011 194.383 169.011 178.039Z" fill="#0E0E0E"/>
<path opacity="0.72" d="M169.011 178.039C169.011 157.325 160.795 138.447 147.161 123.764C146.811 124.114 146.462 124.551 146.112 124.988C156.338 140.108 162.193 157.85 162.281 176.903C162.281 193.422 157.824 208.979 150.045 222.7H155.027C163.854 209.678 169.011 194.383 169.011 178.039Z" fill="#0E0E0E"/>
<path opacity="0.37" d="M147.161 123.764C146.112 124.9 145.063 126.124 144.102 127.347C153.192 141.331 158.435 157.762 158.523 175.242C158.523 192.548 153.454 208.716 144.539 222.7H155.027C163.854 209.765 169.011 194.47 169.011 178.127C168.923 157.325 160.708 138.36 147.161 123.764Z" fill="#0E0E0E"/>
<path opacity="0.72" d="M147.161 123.764C146.811 124.114 146.462 124.551 146.112 124.988C156.338 140.108 162.193 157.85 162.281 176.903C162.281 193.422 157.824 208.979 150.045 222.7H155.027C163.854 209.765 169.011 194.47 169.011 178.127C168.923 157.325 160.708 138.36 147.161 123.764Z" fill="#0E0E0E"/>
<path d="M157.125 139.496C153.891 133.815 150.045 128.571 145.588 123.677C141.13 128.484 137.285 133.815 134.051 139.496H157.125Z" fill="#0E0E0E"/>
<path d="M139.557 222.613C130.643 209.678 125.486 194.383 125.486 178.039C125.486 157.325 133.614 138.36 147.161 123.764C160.708 138.36 168.924 157.325 169.011 178.039C169.011 194.47 163.854 209.678 155.027 222.613H139.557Z" stroke="#0E0E0E" stroke-width="6" stroke-miterlimit="10" stroke-linecap="round" stroke-linejoin="round"/>
<path d="M253.089 290.086C253.089 290.086 242.514 292.358 227.306 307.566C221.8 313.072 213.148 324.259 206.768 332.737C204.146 336.233 198.552 334.485 198.465 330.115L196.367 237.034C195.93 234.412 196.629 231.703 198.29 229.692L221.189 201.2L253.089 290.086Z" fill="#0E0E0E"/>
<path opacity="0.32" d="M198.29 331.95C203.272 331.251 207.03 326.968 207.117 321.899L208.079 235.373C207.642 232.751 208.341 230.042 210.001 228.032L224.335 210.115L221.101 201.2L198.29 229.605C196.629 231.703 195.93 234.325 196.367 236.947L198.29 331.95Z" fill="#F4A15D"/>
<path opacity="0.72" d="M253.09 290.086L221.189 201.2L208.516 217.019C215.333 243.239 226.083 269.896 240.591 296.466C248.283 291.134 253.09 290.086 253.09 290.086Z" fill="#0E0E0E"/>
<path d="M253.089 290.086C253.089 290.086 242.514 292.358 227.306 307.566C221.8 313.072 213.148 324.259 206.768 332.737C204.146 336.233 198.552 334.485 198.465 330.115L196.367 237.034C195.93 234.412 196.629 231.703 198.29 229.692L221.189 201.2L253.089 290.086Z" stroke="#0E0E0E" stroke-width="6" stroke-miterlimit="10" stroke-linecap="round" stroke-linejoin="round"/>
<path d="M131.254 211.076H160.009" stroke="#0E0E0E" stroke-width="4" stroke-miterlimit="10" stroke-linecap="round" stroke-linejoin="round"/>
<path d="M139.557 222.613C130.643 209.678 125.486 194.383 125.486 178.039C125.486 157.325 133.614 138.36 147.161 123.764C160.708 138.36 168.924 157.325 169.011 178.039C169.011 194.47 163.854 209.678 155.027 222.613H139.557Z" fill="#0E0E0E"/>
<path d="M139.557 222.613C130.643 209.678 125.486 194.383 125.486 178.039C125.486 157.325 133.614 138.36 147.161 123.764C160.708 138.36 168.924 157.325 169.011 178.039C169.011 194.47 163.854 209.678 155.027 222.613H139.557Z" fill="#0E0E0E"/>
<path opacity="0.23" d="M145.85 123.764C146.899 124.9 147.948 126.124 148.909 127.347C139.819 141.331 134.575 157.762 134.488 175.242C134.488 192.548 137.11 208.716 146.025 222.7H137.984C129.157 209.765 124 194.47 124 178.127C124.087 157.325 132.303 138.36 145.85 123.764Z" fill="#F4A15D"/>
<path opacity="0.32" d="M145.85 123.764C146.2 124.114 146.549 124.551 146.899 124.988C136.673 140.108 130.817 157.85 130.73 176.903C130.73 193.422 135.187 208.979 142.966 222.7H137.984C129.157 209.765 124 194.47 124 178.127C124.087 157.325 132.303 138.36 145.85 123.764Z" fill="#F4A15D"/>
<path opacity="0.37" d="M169.011 178.039C169.011 157.325 160.795 138.447 147.161 123.764C146.112 124.9 145.063 126.124 144.102 127.347C153.192 141.331 158.435 157.762 158.523 175.242C158.523 192.548 153.454 208.716 144.539 222.7H155.027C163.854 209.678 169.011 194.383 169.011 178.039Z" fill="#0E0E0E"/>
<path opacity="0.72" d="M169.011 178.039C169.011 157.325 160.795 138.447 147.161 123.764C146.811 124.114 146.462 124.551 146.112 124.988C156.338 140.108 162.193 157.85 162.281 176.903C162.281 193.422 157.824 208.979 150.045 222.7H155.027C163.854 209.678 169.011 194.383 169.011 178.039Z" fill="#0E0E0E"/>
<path opacity="0.37" d="M147.161 123.764C146.112 124.9 145.063 126.124 144.102 127.347C153.192 141.331 158.435 157.762 158.523 175.242C158.523 192.548 153.454 208.716 144.539 222.7H155.027C163.854 209.765 169.011 194.47 169.011 178.127C168.923 157.325 160.708 138.36 147.161 123.764Z" fill="#0E0E0E"/>
<path opacity="0.72" d="M147.161 123.764C146.811 124.114 146.462 124.551 146.112 124.988C156.338 140.108 162.193 157.85 162.281 176.903C162.281 193.422 157.824 208.979 150.045 222.7H155.027C163.854 209.765 169.011 194.47 169.011 178.127C168.923 157.325 160.708 138.36 147.161 123.764Z" fill="#0E0E0E"/>
<path d="M158.698 139.496C155.464 133.815 151.618 128.571 147.161 123.677C142.703 128.484 138.858 133.815 135.624 139.496H158.698Z" fill="#0E0E0E"/>
<path d="M139.557 222.613C130.643 209.678 125.486 194.383 125.486 178.039C125.486 157.325 133.614 138.36 147.161 123.764C160.708 138.36 168.924 157.325 169.011 178.039C169.011 194.47 163.854 209.678 155.027 222.613H139.557Z" stroke="#0E0E0E" stroke-width="6" stroke-miterlimit="10" stroke-linecap="round" stroke-linejoin="round"/>
<path d="M131.254 211.076H160.009" stroke="#0E0E0E" stroke-width="4" stroke-miterlimit="10" stroke-linecap="round" stroke-linejoin="round"/>
<path d="M383.14 197.354L411.633 208.454V154.354L324.146 86.0946V188.44L345.296 199.539C356.571 193.596 370.293 192.373 383.14 197.354Z" fill="#0E0E0E"/>
<path opacity="0.72" d="M411.633 208.454L383.315 197.442C382.966 189.925 383.49 182.234 384.888 174.543C386.986 163.006 390.919 152.169 396.338 142.38L411.633 154.354V208.454Z" fill="#0E0E0E"/>
<path opacity="0.23" d="M408.049 169.474L324.146 104.099V86.0946L411.633 154.266V208.454L408.049 207.056V169.474Z" fill="#F4A15D"/>
<path opacity="0.72" d="M358.931 194.907C354.124 195.694 349.579 197.267 345.296 199.539L324.146 188.44V86.0946L361.028 114.849C362.864 125.949 363.738 137.573 363.738 149.547C363.738 165.366 362.077 180.661 358.931 194.907Z" fill="#0E0E0E"/>
<path d="M383.14 197.354L411.633 208.454V154.354L324.146 86.0946V188.44L345.296 199.539C356.571 193.596 370.293 192.373 383.14 197.354Z" stroke="#0E0E0E" stroke-width="6" stroke-miterlimit="10" stroke-linecap="round" stroke-linejoin="round"/>
<path d="M307.452 290.086C307.452 290.086 318.028 292.358 333.235 307.566C338.742 313.072 347.394 324.259 353.774 332.737C356.396 336.233 361.99 334.485 362.077 330.115L364.175 237.034C364.612 234.412 363.913 231.703 362.252 229.692L339.353 201.2L307.452 290.086Z" fill="#0E0E0E"/>
<path opacity="0.72" d="M362.165 331.95C357.183 331.251 353.425 326.968 353.337 321.899L352.376 235.373C352.813 232.751 352.114 230.042 350.453 228.032L336.119 210.115L339.353 201.2L362.252 229.692C363.912 231.79 364.612 234.412 364.175 237.034L362.165 331.95Z" fill="#0E0E0E"/>
<path opacity="0.72" d="M307.452 290.086L339.353 201.2L352.026 217.019C345.209 243.239 334.459 269.896 319.951 296.466C312.259 291.134 307.452 290.086 307.452 290.086Z" fill="#0E0E0E"/>
<path d="M307.452 290.086C307.452 290.086 318.028 292.358 333.235 307.566C338.742 313.072 347.394 324.259 353.774 332.737C356.396 336.233 361.99 334.485 362.077 330.115L364.175 237.034C364.612 234.412 363.913 231.703 362.252 229.692L339.353 201.2L307.452 290.086Z" stroke="#0E0E0E" stroke-width="6" stroke-miterlimit="10" stroke-linecap="round" stroke-linejoin="round"/>
<path d="M307.015 340.078C307.977 329.678 306.578 319.889 289.098 294.106C286.214 289.998 279.309 289.998 276.425 294.106C258.945 319.976 257.547 329.765 258.508 340.078C258.683 341.389 261.043 342.875 262.529 342.351C272.58 337.194 292.944 337.194 302.995 342.351C304.481 342.875 306.84 341.477 307.015 340.078Z" fill="#4E8280"/>
<g opacity="0.32">
<g opacity="0.32">
<g opacity="0.32">
<path opacity="0.32" d="M267.336 340.078C266.374 329.678 267.773 319.889 285.253 294.106C285.777 293.319 286.476 292.708 287.175 292.271C283.854 290.086 278.785 290.697 276.425 294.106C258.945 319.976 257.547 329.765 258.508 340.078C258.683 341.389 261.043 342.875 262.529 342.351C264.015 341.651 265.675 340.952 267.423 340.428C267.423 340.34 267.336 340.253 267.336 340.078Z" fill="#F4A15D"/>
</g>
<g opacity="0.32">
<path opacity="0.32" d="M287.175 338.68C293.206 339.117 298.887 340.34 302.995 342.351C304.306 342.875 306.403 341.651 306.928 340.428C301.159 338.767 293.992 338.155 287.175 338.68Z" fill="#F4A15D"/>
</g>
</g>
</g>
<path d="M279.484 294.106C279.222 293.756 278.96 293.494 278.698 293.232C281.931 289.998 287.962 290.348 290.584 294.106C308.064 319.976 309.462 329.765 308.501 340.078C308.326 341.389 305.966 342.875 304.481 342.351C302.47 341.302 300.023 340.515 297.401 339.904C298.363 329.59 296.877 319.802 279.484 294.106Z" fill="#37605D"/>
<path d="M307.015 340.078C307.977 329.678 306.578 319.889 289.098 294.106C286.214 289.998 279.309 289.998 276.425 294.106C258.945 319.976 257.547 329.765 258.508 340.078C258.683 341.389 261.043 342.875 262.529 342.351C272.58 337.194 292.944 337.194 302.995 342.351C304.481 342.875 306.84 341.477 307.015 340.078Z" stroke="#0E0E0E" stroke-width="6" stroke-miterlimit="10" stroke-linecap="round" stroke-linejoin="round"/>
<path d="M302.471 308.702C343.636 241.317 358.581 175.155 349.317 120.006C341.276 72.1107 315.406 37.5877 282.718 16C250.031 37.5877 224.16 72.1107 216.12 120.006C206.855 175.155 221.888 241.317 262.966 308.702H302.471Z" fill="#0E0E0E"/>
<path opacity="0.23" d="M247.409 120.967C252.653 77.6167 266.287 43.1812 284.641 17.3983C284.029 16.9613 283.33 16.5243 282.718 16.0873C250.031 37.675 224.16 72.1979 216.12 120.093C206.855 175.242 221.888 241.404 262.966 308.789H271.269C248.458 241.404 240.766 176.641 247.409 120.967Z" fill="#F4A15D"/>
<path opacity="0.37" d="M349.317 120.006C341.364 72.4601 315.843 38.112 283.417 16.5243C289.448 26.2257 297.139 40.2096 303.607 57.9518C315.406 90.2023 316.717 116.772 317.416 133.465C320.562 208.542 291.808 291.571 285.777 308.789H302.471C343.636 241.316 358.581 175.155 349.317 120.006Z" fill="#0E0E0E"/>
<path opacity="0.72" d="M349.317 120.006C341.276 72.1107 315.406 37.5877 282.718 16C281.844 16.5244 281.058 17.1362 280.184 17.6606C292.594 27.362 302.034 37.7626 309.2 47.7261C373.527 137.223 311.822 271.207 303.345 288.949C302.995 276.888 301.422 261.943 296.964 245.25C294.08 234.587 290.584 225.235 287.088 217.282C285.777 246.91 284.466 276.539 283.155 306.167H293.993C293.731 307.041 293.468 307.828 293.119 308.702H302.296C343.636 241.317 358.581 175.155 349.317 120.006Z" fill="#0E0E0E"/>
<path opacity="0.32" d="M227.132 135.213C228.355 121.229 232.9 75.7815 260.955 38.4618C265.413 32.606 272.055 24.6526 271.531 24.2156C270.744 23.5164 255.362 37.413 244.437 52.1835C230.715 70.6249 220.664 93.2614 216.207 120.006C206.942 175.155 221.975 241.317 263.053 308.702H266.636C255.362 286.24 247.933 265.963 242.864 249.969C239.542 239.219 233.687 220.166 230.016 194.645C227.656 177.515 225.034 159.161 227.132 135.213Z" fill="#F4A15D"/>
<path opacity="0.72" d="M287.437 153.217C300.567 153.217 311.21 142.574 311.21 129.445C311.21 116.315 300.567 105.672 287.437 105.672C274.308 105.672 263.665 116.315 263.665 129.445C263.665 142.574 274.308 153.217 287.437 153.217Z" fill="#0E0E0E" stroke="#0E0E0E" stroke-width="6" stroke-miterlimit="10" stroke-linecap="round" stroke-linejoin="round"/>
<path d="M302.471 308.702C343.636 241.317 358.581 175.155 349.317 120.006C341.276 72.1107 315.406 37.5877 282.718 16C250.031 37.5877 224.16 72.1107 216.12 120.006C206.855 175.155 221.888 241.317 262.966 308.702H302.471Z" stroke="#0E0E0E" stroke-width="6" stroke-miterlimit="10" stroke-linecap="round" stroke-linejoin="round"/>
<path d="M306.196 129.583C308.299 116.623 299.498 104.412 286.538 102.309C273.578 100.206 261.367 109.007 259.264 121.967C257.161 134.927 265.962 147.138 278.922 149.241C291.882 151.344 304.093 142.543 306.196 129.583Z" fill="#ABCFD8"/>
<path opacity="0.93" d="M279.484 138.797C287.4 138.797 293.818 132.379 293.818 124.463C293.818 116.547 287.4 110.13 279.484 110.13C271.568 110.13 265.151 116.547 265.151 124.463C265.151 132.379 271.568 138.797 279.484 138.797Z" fill="#E2F0F2"/>
<path d="M306.196 129.583C308.299 116.623 299.498 104.412 286.538 102.309C273.578 100.206 261.367 109.007 259.264 121.967C257.161 134.927 265.962 147.138 278.922 149.241C291.882 151.344 304.093 142.543 306.196 129.583Z" stroke="#0E0E0E" stroke-width="6" stroke-miterlimit="10" stroke-linecap="round" stroke-linejoin="round"/>
<path d="M282.718 349.605C283.679 349.605 284.466 348.556 284.553 347.158L291.108 240.18C291.807 229.168 288.311 218.942 283.155 216.495C282.805 216.32 282.455 216.32 282.193 216.495C277.037 218.855 273.541 229.081 274.24 240.18L280.795 347.158C280.97 348.556 281.844 349.605 282.718 349.605Z" fill="#0E0E0E"/>
<path opacity="0.74" d="M282.718 349.605C283.679 349.605 284.466 348.556 284.553 347.158L291.108 240.18C291.807 229.168 288.311 218.942 283.155 216.495C282.805 216.32 282.455 216.32 282.193 216.495C277.037 218.855 273.541 229.081 274.24 240.18L280.795 347.158C280.97 348.556 281.844 349.605 282.718 349.605Z" fill="#0E0E0E"/>
<g opacity="0.53">
<g opacity="0.53">
<g opacity="0.53">
<path opacity="0.53" d="M282.281 216.495C277.125 218.855 273.629 229.081 274.328 240.18L280.883 347.158C280.97 348.294 281.495 349.255 282.194 349.518V216.495H282.281Z" fill="#F4A15D"/>
</g>
<g opacity="0.53">
<path opacity="0.53" d="M282.281 216.495H283.243C282.893 216.32 282.543 216.32 282.281 216.495Z" fill="#F4A15D"/>
</g>
</g>
</g>
<path d="M282.718 349.605C283.679 349.605 284.466 348.556 284.553 347.158L291.108 240.18C291.807 229.168 288.311 218.942 283.155 216.495C282.805 216.32 282.455 216.32 282.193 216.495C277.037 218.855 273.541 229.081 274.24 240.18L280.795 347.158C280.97 348.556 281.844 349.605 282.718 349.605Z" stroke="#0E0E0E" stroke-width="6" stroke-miterlimit="10" stroke-linecap="round" stroke-linejoin="round"/>
<path d="M411.021 222.613C402.106 209.678 396.949 194.383 396.949 178.039C396.949 157.325 405.078 138.36 418.624 123.764C432.171 138.36 440.387 157.325 440.474 178.039C440.474 194.47 435.318 209.678 426.49 222.613H411.021Z" fill="#0E0E0E"/>
<path d="M411.021 222.613C402.106 209.678 396.949 194.383 396.949 178.039C396.949 157.325 405.078 138.36 418.624 123.764C432.171 138.36 440.387 157.325 440.474 178.039C440.474 194.47 435.318 209.678 426.49 222.613H411.021Z" fill="#0E0E0E"/>
<path opacity="0.23" d="M417.401 123.764C418.45 124.9 419.499 126.124 420.46 127.347C411.371 141.331 406.127 157.762 406.039 175.242C406.039 192.548 408.661 208.716 417.576 222.7H409.535C400.708 209.765 395.551 194.47 395.551 178.127C395.551 157.325 403.767 138.36 417.401 123.764Z" fill="#F4A15D"/>
<path opacity="0.32" d="M417.401 123.764C417.751 124.114 418.1 124.551 418.45 124.988C408.224 140.108 402.368 157.85 402.281 176.903C402.281 193.422 406.738 208.979 414.517 222.7H409.535C400.708 209.765 395.551 194.47 395.551 178.127C395.551 157.325 403.767 138.36 417.401 123.764Z" fill="#F4A15D"/>
<path opacity="0.37" d="M440.474 178.039C440.474 157.325 432.259 138.447 418.624 123.764C417.576 124.9 416.527 126.124 415.565 127.347C424.655 141.331 429.899 157.762 429.986 175.242C429.986 192.548 424.917 208.716 416.002 222.7H426.49C435.318 209.678 440.474 194.383 440.474 178.039Z" fill="#0E0E0E"/>
<path opacity="0.72" d="M440.475 178.039C440.475 157.325 432.259 138.447 418.625 123.764C418.275 124.114 417.926 124.551 417.576 124.988C427.802 140.108 433.658 157.85 433.745 176.903C433.745 193.422 429.288 208.979 421.509 222.7H426.491C435.318 209.678 440.475 194.383 440.475 178.039Z" fill="#0E0E0E"/>
<path opacity="0.37" d="M418.624 123.764C417.576 124.9 416.527 126.124 415.565 127.347C424.655 141.331 429.899 157.762 429.986 175.242C429.986 192.548 424.917 208.716 416.002 222.7H426.49C435.318 209.765 440.474 194.47 440.474 178.127C440.474 157.325 432.259 138.36 418.624 123.764Z" fill="#0E0E0E"/>
<path opacity="0.72" d="M418.625 123.764C418.275 124.114 417.926 124.551 417.576 124.988C427.802 140.108 433.658 157.85 433.745 176.903C433.745 193.422 429.288 208.979 421.509 222.7H426.491C435.318 209.765 440.475 194.47 440.475 178.127C440.475 157.325 432.259 138.36 418.625 123.764Z" fill="#0E0E0E"/>
<path d="M430.249 139.496C427.015 133.815 423.169 128.571 418.712 123.677C414.255 128.484 410.409 133.815 407.175 139.496H430.249Z" fill="#0E0E0E"/>
<path d="M411.021 222.613C402.106 209.678 396.949 194.383 396.949 178.039C396.949 157.325 405.078 138.36 418.624 123.764C432.171 138.36 440.387 157.325 440.474 178.039C440.474 194.47 435.318 209.678 426.49 222.613H411.021Z" stroke="#0E0E0E" stroke-width="6" stroke-miterlimit="10" stroke-linecap="round" stroke-linejoin="round"/>
<path d="M404.378 211.076H433.133" stroke="#0E0E0E" stroke-width="4" stroke-miterlimit="10" stroke-linecap="round" stroke-linejoin="round"/>
</svg>
