<svg width="611" height="480" viewBox="0 0 611 480" fill="none" xmlns="http://www.w3.org/2000/svg">
<path opacity="0.34" d="M548.088 479.919H53.731C47.4238 479.919 42.3141 474.957 42.3141 468.831C42.3141 462.705 47.4238 457.742 53.731 457.742H548.088C554.395 457.742 559.504 462.705 559.504 468.831C559.504 474.957 554.395 479.919 548.088 479.919Z" fill="black"/>
<path d="M584.414 333.831H483.898C473.679 333.831 465.376 325.767 465.376 315.842C465.376 305.916 473.679 297.852 483.898 297.852H540.024C552.159 297.852 561.979 288.314 561.979 276.528C561.979 264.742 552.159 255.204 540.024 255.204H490.125C476.473 255.204 465.376 244.426 465.376 231.166C465.376 217.907 476.473 207.128 490.125 207.128H545.613C557.748 207.128 567.648 197.513 567.648 185.727C567.648 173.941 557.748 164.325 545.613 164.325H465.455H446.294C434.159 164.325 424.259 154.71 424.259 142.924C424.259 131.138 434.159 121.523 446.294 121.523H468.01C480.146 121.523 490.045 111.907 490.045 100.121C490.045 88.3348 480.146 78.7196 468.01 78.7196H455.635H453.56H322.386H317.915H180.913H149.537C137.401 78.7196 127.501 88.3348 127.501 100.121C127.501 111.907 137.401 121.523 149.537 121.523H158.878C171.013 121.523 180.913 131.138 180.913 142.924C180.913 154.71 171.013 164.325 158.878 164.325H74.8082C65.4671 164.325 57.8825 171.692 57.8825 180.764C57.8825 189.837 65.4671 197.203 74.8082 197.203H163.348C173.089 197.203 180.993 204.88 180.993 214.34C180.993 223.8 173.089 231.476 163.348 231.476H22.0353C9.89991 231.476 0 241.091 0 252.878C0 264.664 9.89991 274.279 22.0353 274.279H158.878C171.013 274.279 180.913 283.894 180.913 295.681C180.913 307.467 171.013 317.082 158.878 317.082H76.2453C56.7648 317.082 40.9569 332.435 40.9569 351.355C40.9569 370.276 56.7648 385.629 76.2453 385.629H180.913H227.379H253.486H465.455H584.414C599.104 385.629 611 374.075 611 359.808C611 345.385 599.104 333.831 584.414 333.831Z" fill="#65706C"/>
<path d="M397.919 468.85H412.29V258.867H397.919V468.85Z" fill="#2F262D"/>
<path d="M343.224 301.186C340.908 296.146 343.224 290.175 348.493 287.849C349.85 287.306 351.287 286.996 352.724 286.996C356.796 286.996 360.548 289.322 362.225 292.967L413.321 404.782L394.32 413.001L343.224 301.186Z" fill="#FC9F6F"/>
<path d="M257.801 468.85H272.171V258.867H257.801V468.85Z" fill="#2F262D"/>
<path d="M324.302 272.573C274.882 272.573 234.883 235.974 234.883 190.922C234.883 179.291 237.598 168.202 242.388 158.122C210.932 170.761 188.976 199.529 188.976 232.872C188.976 278.001 228.975 314.523 278.395 314.523C315.041 314.523 346.497 294.44 360.309 265.672C349.211 270.092 337.076 272.573 324.302 272.573Z" fill="#F2F2F2"/>
<path d="M274.802 294.673C301.832 294.673 323.743 275.127 323.743 251.017C323.743 226.906 301.832 207.361 274.802 207.361C247.773 207.361 225.862 226.906 225.862 251.017C225.862 275.127 247.773 294.673 274.802 294.673Z" fill="#3B323A"/>
<path d="M186.661 258.849H77.2033C73.0517 258.849 69.6187 255.514 69.6187 251.482V244.503C69.6187 240.471 73.0517 237.137 77.2033 237.137H186.661C190.813 237.137 194.246 240.471 194.246 244.503V251.482C194.246 255.514 190.813 258.849 186.661 258.849Z" fill="#AFAFAF"/>
<path d="M317.196 217.751C301.867 217.751 289.413 205.655 289.413 190.767V163.783C289.413 153.47 280.87 145.173 270.252 145.173V190.767C270.252 215.968 291.249 236.361 317.196 236.361H356.077V217.751H317.196Z" fill="#EF9067"/>
<path d="M323.503 75.3078C320.629 110.589 288.694 149.67 258.835 144.707C230.253 139.977 210.613 96.1664 220.273 65.46C226.261 46.5399 242.707 34.676 255.961 25.1384C269.693 15.2131 278.954 8.54453 289.492 10.1729C310.41 13.2746 325.819 47.2377 323.503 75.3078Z" fill="#603936"/>
<path d="M283.185 175.724C282.626 175.104 278.155 170.063 277.357 169.366C275.281 161.069 271.05 151.919 271.928 141.218C265.94 136.953 256.04 131.525 244.783 132.301C241.43 132.533 237.917 133.309 236.161 133.697C226.42 135.868 220.273 139.357 218.277 140.52C215.562 142.149 214.205 142.924 212.608 144.475C208.297 148.817 207.259 154.09 206.7 157.192C201.91 184.176 205.663 210.075 206.142 212.324C207.02 216.433 208.217 220.078 208.217 220.078C210.213 226.204 212.608 230.003 213.247 231.709C216.441 240.083 223.706 257.685 231.37 271.1C236.959 271.953 249.653 277.381 258.036 274.589C270.81 270.325 297.157 260.787 306.578 258.849C294.842 246.054 284.063 231.787 281.269 214.417C280.551 209.92 279.912 205.5 279.433 201.158C280.551 200.615 287.337 197.281 288.694 190.612C290.131 183.401 284.303 176.965 283.185 175.724Z" fill="#FFBD59"/>
<path d="M254.354 159.357C261.319 157.47 265.132 149.554 262.87 141.675C260.608 133.797 253.127 128.939 246.162 130.826C239.197 132.712 235.384 140.628 237.646 148.507C239.909 156.385 247.389 161.243 254.354 159.357Z" fill="#EF9067"/>
<path d="M248.216 127.493C252.607 137.574 259.873 141.063 264.503 143.699C273.525 148.817 290.451 148.352 290.451 148.352C291.009 144.785 291.568 141.683 294.442 135.79C298.594 127.028 302.426 124.934 307.775 117.025C315.759 105.084 319.751 90.661 317.196 89.2653C315.36 88.1797 310.33 93.7627 307.057 97.0194C297.716 106.324 276.798 120.127 248.216 127.493Z" fill="#603936"/>
<path d="M247.897 149.67H244.544C237.199 149.67 231.291 143.932 231.291 136.798V87.8695H257.797V139.977C257.797 145.328 253.326 149.67 247.897 149.67Z" fill="#EF9067"/>
<path d="M98.6664 468.85H113.037L113.037 258.867H98.6664L98.6664 468.85Z" fill="#2F262D"/>
<path d="M187.055 468.85H201.426L201.426 258.867H187.055L187.055 468.85Z" fill="#494149"/>
<path d="M484.417 468.85H498.788V258.867H484.417V468.85Z" fill="#494149"/>
<path opacity="0.71" d="M231.291 93.0647C233.047 107.875 243.586 120.127 257.797 124.779V84.9229H231.291V93.0647Z" fill="#D36B46"/>
<path d="M270.252 122.841C250.771 122.841 235.043 107.565 235.043 88.6448V46.9275C235.043 45.144 236.48 43.7483 238.316 43.7483H288.375C297.796 43.7483 305.46 51.1923 305.46 60.3422V88.6448C305.46 107.565 289.732 122.841 270.252 122.841Z" fill="#FC9F6F"/>
<path d="M305.46 83.7597C305.061 84.6902 304.103 85.3106 303.065 85.3106H287.576C286.139 85.3106 284.942 84.1474 284.942 82.7517V74.2997C284.942 72.9039 286.139 71.7408 287.576 71.7408H303.065C304.103 71.7408 305.061 72.3611 305.46 73.2916V70.0349C304.742 69.6472 303.943 69.4146 303.065 69.4146H287.576C284.782 69.4146 282.547 71.5857 282.547 74.2997V82.7517C282.547 85.4657 284.782 87.6368 287.576 87.6368H303.065C303.943 87.6368 304.742 87.4042 305.46 87.0165V83.7597Z" fill="#DD9883"/>
<path d="M274.323 86.3961H258.835C256.679 86.3961 255.003 84.6902 255.003 82.6741V74.2221C255.003 72.1285 256.759 70.5001 258.835 70.5001H274.323C276.479 70.5001 278.156 72.206 278.156 74.2221V82.6741C278.156 84.7678 276.399 86.3961 274.323 86.3961Z" stroke="#DD9883" stroke-width="3" stroke-miterlimit="10" stroke-linecap="round" stroke-linejoin="round"/>
<path opacity="0.6" d="M256.919 95.1583V53.4409C256.919 51.6575 258.356 50.2617 260.192 50.2617L289.093 40.4139C285.98 36.4593 293.884 43.8258 288.375 43.8258H238.316C236.48 43.8258 235.043 45.2215 235.043 47.005V88.7223C235.043 107.642 250.771 122.918 270.252 122.918C270.651 122.918 271.05 122.918 271.529 122.918C262.667 116.637 256.919 106.557 256.919 95.1583Z" fill="#EF9067"/>
<path d="M303.065 84.8452H287.576C285.421 84.8452 283.744 83.1393 283.744 81.1232V72.6712C283.744 70.5776 285.501 68.9492 287.576 68.9492H303.065C305.221 68.9492 306.897 70.6551 306.897 72.6712V81.1232C306.897 83.2169 305.141 84.8452 303.065 84.8452Z" stroke="#F6CDF7" stroke-width="3" stroke-miterlimit="10" stroke-linecap="round" stroke-linejoin="round"/>
<path d="M279.433 105.627C274.962 105.627 271.369 102.137 271.369 97.8724V94.2279H287.337V97.8724C287.337 102.137 283.824 105.627 279.433 105.627Z" fill="#FCFAFA"/>
<path d="M264.982 75.928H272.168" stroke="#161515" stroke-width="3" stroke-miterlimit="10" stroke-linecap="round" stroke-linejoin="round"/>
<path d="M292.127 75.928H299.313" stroke="#161515" stroke-width="3" stroke-miterlimit="10" stroke-linecap="round" stroke-linejoin="round"/>
<path d="M274.323 84.8452H258.835C256.679 84.8452 255.003 83.1393 255.003 81.1232V72.6712C255.003 70.5776 256.759 68.9492 258.835 68.9492H274.323C276.479 68.9492 278.156 70.6551 278.156 72.6712V81.1232C278.156 83.2169 276.399 84.8452 274.323 84.8452Z" stroke="#F6CDF7" stroke-width="3" stroke-miterlimit="10" stroke-linecap="round" stroke-linejoin="round"/>
<path d="M285.022 12.3441C275.361 0.247591 258.915 0.480218 255.881 0.170052C253.166 -0.372738 238.236 0.325138 227.299 3.11663C202.07 9.63012 184.506 31.807 184.506 57.2406V89.808C184.506 111.675 201.112 138.194 222.429 145.095C234.245 148.972 247.338 151.919 250.452 151.454C234.644 122.996 236.799 106.169 241.27 96.3215C251.969 72.2837 283.345 73.1366 291.089 46.3848C291.249 45.6094 296.119 26.3015 285.022 12.3441Z" fill="#754743"/>
<path d="M383.542 236.129C384.34 234.113 384.739 231.942 384.739 229.693C384.739 219.38 376.197 211.083 365.578 211.083C354.96 211.083 346.417 219.38 346.417 229.693C346.417 231.942 346.816 234.113 347.615 236.129H383.542Z" fill="#EF9067"/>
<path d="M322.066 237.137C320.47 230.003 311.608 224.575 300.829 224.575C290.131 224.575 281.189 230.003 279.593 237.137H322.066Z" fill="#F4EFF0"/>
<path d="M216.92 182.858C223.357 182.858 228.576 174.908 228.576 165.101C228.576 155.294 223.357 147.344 216.92 147.344C210.482 147.344 205.263 155.294 205.263 165.101C205.263 174.908 210.482 182.858 216.92 182.858Z" fill="#EF9067"/>
<path d="M252.208 218.372C236.879 218.372 224.425 206.275 224.425 191.387V158.432C224.425 153.315 220.113 149.127 214.844 149.127C209.575 149.127 205.263 153.315 205.263 158.432V191.387C205.263 216.588 226.261 236.982 252.208 236.982H291.089V218.372H271.609H252.208Z" fill="#FC9F6F"/>
<path d="M413.641 237.137H324.222C323.104 237.137 322.146 236.206 322.146 235.121C322.146 234.035 323.104 233.105 324.222 233.105H413.72C414.838 233.105 415.796 234.035 415.796 235.121C415.796 236.206 414.838 237.137 413.641 237.137Z" fill="white"/>
<path d="M413.641 235.121H324.222C323.424 235.121 322.785 234.733 322.386 234.113C322.226 234.423 322.066 234.733 322.066 235.121C322.066 236.206 323.024 237.137 324.142 237.137H413.641C414.758 237.137 415.716 236.206 415.716 235.121C415.716 234.733 415.636 234.423 415.397 234.113C415.078 234.655 414.439 235.121 413.641 235.121Z" fill="#F4EFF0"/>
<path d="M341.547 237.137H324.222C323.104 237.137 322.146 236.206 322.146 235.121C322.146 234.035 323.104 233.105 324.222 233.105H341.547C342.665 233.105 343.623 234.035 343.623 235.121C343.623 236.206 342.744 237.137 341.547 237.137Z" fill="#F4EFF0"/>
<path d="M407.333 233.105H400.787V231.632C400.787 230.856 401.425 230.158 402.304 230.158H405.816C406.615 230.158 407.333 230.779 407.333 231.632V233.105Z" fill="#F4EFF0"/>
<path d="M399.35 233.105H392.803V231.632C392.803 230.856 393.442 230.158 394.32 230.158H397.833C398.631 230.158 399.35 230.779 399.35 231.632V233.105Z" fill="#F4EFF0"/>
<path d="M391.366 233.105H384.819V231.632C384.819 230.856 385.458 230.158 386.336 230.158H389.849C390.647 230.158 391.366 230.779 391.366 231.632V233.105Z" fill="#F4EFF0"/>
<path d="M383.382 233.105H376.835V231.632C376.835 230.856 377.474 230.158 378.352 230.158H381.865C382.663 230.158 383.382 230.779 383.382 231.632V233.105Z" fill="#F4EFF0"/>
<path d="M375.398 233.105H368.851V231.632C368.851 230.856 369.49 230.158 370.368 230.158H373.881C374.68 230.158 375.398 230.779 375.398 231.632V233.105Z" fill="#F4EFF0"/>
<path d="M367.414 233.105H360.868V231.632C360.868 230.856 361.506 230.158 362.385 230.158H365.897C366.696 230.158 367.414 230.779 367.414 231.632V233.105Z" fill="#F4EFF0"/>
<path d="M359.431 233.105H352.884V231.632C352.884 230.856 353.523 230.158 354.401 230.158H357.914C358.712 230.158 359.431 230.779 359.431 231.632V233.105Z" fill="#F4EFF0"/>
<path d="M351.447 233.105H344.9V231.632C344.9 230.856 345.539 230.158 346.417 230.158H349.93C350.728 230.158 351.447 230.779 351.447 231.632V233.105Z" fill="#F4EFF0"/>
<path d="M343.463 233.105H336.916V231.632C336.916 230.856 337.555 230.158 338.433 230.158H341.946C342.744 230.158 343.463 230.779 343.463 231.632V233.105Z" fill="#F4EFF0"/>
<path d="M335.479 233.105H328.932V231.632C328.932 230.856 329.571 230.158 330.449 230.158H333.962C334.761 230.158 335.479 230.779 335.479 231.632V233.105Z" fill="#F4EFF0"/>
<path d="M324.222 237.137H341.547C342.665 237.137 343.623 236.206 343.623 235.121H322.066C322.066 236.206 323.024 237.137 324.222 237.137Z" fill="#E2E2E2"/>
<path d="M331.966 300.101H268.814L268.335 267.533H346.577C351.846 267.533 356.077 271.643 356.077 276.761C355.998 289.71 345.219 300.101 331.966 300.101Z" fill="#352934"/>
<path d="M281.189 418.196L319.911 291.028C321.188 286.763 325.26 283.817 329.89 283.817C330.849 283.817 331.886 283.972 332.844 284.205C338.353 285.755 341.467 291.416 339.87 296.766L301.149 423.934L281.189 418.196Z" fill="#EF9067"/>
<path d="M313.364 407.806L281.189 398.578L321.747 265.439C324.382 256.832 333.723 251.87 342.585 254.428C351.447 256.987 356.556 266.06 353.922 274.667L313.364 407.806Z" fill="#352934"/>
<path d="M473.2 199.452H339.072C336.437 199.452 334.282 197.358 334.282 194.799L350.888 101.749C350.888 99.1905 353.043 97.0969 355.678 97.0969H489.806C492.441 97.0969 494.596 99.1905 494.596 101.749L477.99 194.799C477.99 197.358 475.914 199.452 473.2 199.452Z" fill="#CECECE"/>
<path d="M481.183 199.452H347.056C344.421 199.452 342.265 197.358 342.265 194.799L358.872 101.749C358.872 99.1905 361.027 97.0969 363.662 97.0969H497.79C500.424 97.0969 502.58 99.1905 502.58 101.749L485.974 194.799C485.974 197.358 483.898 199.452 481.183 199.452Z" fill="#F4EFF0"/>
<path d="M440.227 232.097L429.209 177.895H409.569C407.174 177.895 405.337 180.066 405.816 182.315L415.557 230.158C415.956 231.941 414.519 233.57 412.682 233.57H400.707C398.551 233.57 396.875 235.276 396.875 237.292H416.994H435.676C438.63 237.369 440.785 234.81 440.227 232.097Z" fill="#CECECE"/>
<path d="M441.264 237.369H420.906L409.09 179.213C408.93 178.515 409.489 177.973 410.207 177.973H433.121L444.458 233.725C444.777 235.586 443.26 237.369 441.264 237.369Z" fill="#F4EFF0"/>
<path d="M417.074 237.37H420.906L419.868 232.097H415.956L417.074 237.37Z" fill="#F4EFF0"/>
<path d="M417.074 237.37C419.07 237.37 420.586 235.586 420.187 233.648L419.868 232.097H415.557L417.074 237.37Z" fill="#CECECE"/>
<path d="M434.638 150.135C430.327 150.135 426.814 146.723 426.814 142.536C426.814 141.14 427.213 139.9 427.852 138.814C426.734 138.504 425.536 138.271 424.259 138.271C417.473 138.271 412.044 143.622 412.044 150.135C412.044 156.649 417.553 161.999 424.259 161.999C431.045 161.999 436.474 156.649 436.474 150.135C436.474 150.058 436.474 149.98 436.474 149.903C435.835 150.058 435.277 150.135 434.638 150.135Z" fill="#CECECE"/>
<path d="M341.786 282.343L276 299.17C258.116 303.745 239.993 291.416 231.291 271.022L333.244 250.784C342.186 248.535 351.367 253.731 353.682 262.415C356.077 271.178 350.728 280.095 341.786 282.343Z" fill="#3B323A"/>
<path d="M407.972 379.27L377.314 392.53L323.583 275.132C319.831 266.913 323.663 257.298 332.126 253.653C340.589 250.009 350.489 253.731 354.241 261.95L407.972 379.27Z" fill="#3B323A"/>
<path d="M180.035 258.849H521.901C526.052 258.849 529.485 255.514 529.485 251.482V244.503C529.485 240.471 526.052 237.137 521.901 237.137H180.035C175.883 237.137 172.45 240.471 172.45 244.503V251.482C172.45 255.514 175.803 258.849 180.035 258.849Z" fill="#F2F2F2"/>
<path d="M457.951 417.033L390.009 429.052C387.374 429.517 384.899 427.889 384.34 425.485L383.861 423.392C382.504 417.343 386.496 411.218 393.042 409.589L442.542 397.415C452.122 395.089 461.783 399.354 463.539 407.185L464.178 409.977C464.897 413.156 462.102 416.335 457.951 417.033Z" fill="#535452"/>
<path d="M460.585 411.062L384.659 424.477C384.5 424.477 384.34 424.555 384.18 424.555L384.42 425.485C384.979 427.966 387.454 429.517 390.088 429.052L458.03 417.033C462.182 416.335 465.056 413.156 464.338 409.977L464.258 409.744C463.14 410.364 461.942 410.83 460.585 411.062Z" fill="#FFFDFD"/>
<path d="M317.675 458.518L260.91 420.367C258.755 418.894 258.116 416.025 259.553 413.932L260.751 412.071C264.184 406.875 271.529 405.247 277.277 408.659L321.108 434.092C329.651 439.055 333.323 448.748 328.853 455.416L327.256 457.82C325.499 460.534 321.108 460.844 317.675 458.518Z" fill="#424441"/>
<path d="M323.903 456.114L260.431 413.466C260.272 413.389 260.192 413.234 260.032 413.156L259.553 413.932C258.196 416.025 258.755 418.894 260.91 420.367L317.675 458.518C321.108 460.844 325.499 460.534 327.256 457.82L327.415 457.587C326.218 457.355 325.02 456.812 323.903 456.114Z" fill="#CECECE"/>
<path d="M160.474 237.137H147.541C140.994 237.137 135.645 231.942 135.645 225.583V191.387H172.37V225.583C172.45 231.942 167.101 237.137 160.474 237.137Z" fill="#FF6161"/>
<path d="M139.796 196.04C131.254 196.04 124.388 202.786 124.388 211.005C124.388 219.225 131.334 225.971 139.796 225.971C148.259 225.971 155.205 219.225 155.205 211.005C155.205 202.786 148.259 196.04 139.796 196.04ZM139.796 222.714C133.17 222.714 127.741 217.441 127.741 211.005C127.741 204.569 133.17 199.297 139.796 199.297C146.423 199.297 151.852 204.569 151.852 211.005C151.772 217.519 146.423 222.714 139.796 222.714Z" fill="#F4A36C"/>
<path d="M160.474 237.137H147.541C140.994 237.137 135.645 231.942 135.645 225.583V191.387H172.37V225.583C172.45 231.942 167.101 237.137 160.474 237.137Z" fill="#F7BC8B"/>
<path d="M153.049 226.281C149.377 226.281 146.423 223.412 146.423 219.845V191.387H135.645V225.583C135.645 231.942 140.994 237.137 147.541 237.137H160.474C166.782 237.137 171.971 232.329 172.37 226.281H153.049Z" fill="#EFA573"/>
<path d="M305.3 237.137C306.099 235.121 306.498 232.95 306.498 230.701C306.498 220.388 297.955 212.091 287.337 212.091C276.718 212.091 268.176 220.388 268.176 230.701C268.176 232.95 268.575 235.121 269.373 237.137H305.3Z" fill="#FC9F6F"/>
<path opacity="0.77" d="M150.016 185.184C152.882 185.184 155.205 182.928 155.205 180.144C155.205 177.36 152.882 175.104 150.016 175.104C147.149 175.104 144.826 177.36 144.826 180.144C144.826 182.928 147.149 185.184 150.016 185.184Z" fill="#F2F2F2"/>
<path opacity="0.77" d="M159.596 170.063C163.873 170.063 167.34 166.696 167.34 162.542C167.34 158.388 163.873 155.02 159.596 155.02C155.319 155.02 151.852 158.388 151.852 162.542C151.852 166.696 155.319 170.063 159.596 170.063Z" fill="#F2F2F2"/>
<path d="M83.8299 121.523C95.9996 121.523 105.865 111.941 105.865 100.121C105.865 88.3014 95.9996 78.7196 83.8299 78.7196C71.6601 78.7196 61.7946 88.3014 61.7946 100.121C61.7946 111.941 71.6601 121.523 83.8299 121.523Z" fill="#65706C"/>
</svg>
