<svg width="575" height="584" viewBox="0 0 575 584" fill="none" xmlns="http://www.w3.org/2000/svg">
<path d="M185.914 36.1619C156.914 48.4619 124.414 62.5619 111.014 94.1619C89.4139 144.962 139.114 184.862 115.514 235.062C101.814 264.062 82.7139 255.962 55.6139 289.862C23.4139 330.262 4.6139 399.262 32.7139 453.462C54.1139 494.862 94.3139 511.162 128.514 525.062C140.314 529.862 218.414 560.462 292.714 534.862C310.514 528.762 317.714 519.962 332.914 521.462C369.714 525.262 375.214 574.362 408.814 582.362C437.014 589.062 469.814 563.162 490.514 537.162C494.614 531.962 498.314 526.762 501.414 521.762C519.414 487.062 533.914 446.962 537.714 406.762C538.614 396.662 538.914 386.662 538.414 376.662C536.514 351.062 531.314 326.162 515.614 303.462C487.414 259.962 444.514 225.862 444.314 171.662C443.114 163.462 442.314 154.962 441.514 146.362C437.414 103.162 433.914 56.8618 391.214 29.2618C334.714 -6.93817 268.814 7.56183 211.914 26.7618C202.514 29.6618 193.914 32.7619 185.914 36.1619Z" fill="#FFBD59"/>
<path d="M104.973 327.514L109.477 305.753L133.148 300.312" stroke="#283035" stroke-width="8" stroke-linecap="round" stroke-linejoin="round"/>
<path d="M88.2367 410.89H116.469C117.449 410.89 118.394 410.528 119.129 409.872C119.864 409.216 120.338 408.31 120.462 407.325L128.003 347.335H76.7051L84.2468 407.325C84.3705 408.31 84.8439 409.215 85.5783 409.871C86.3127 410.527 87.2578 410.89 88.2367 410.89Z" fill="#EAD57D"/>
<path d="M84.5527 347.337L90.5361 402.741C90.6592 403.881 91.1929 404.935 92.0349 405.7C92.8769 406.465 93.9679 406.889 95.0988 406.889H120.52L120.465 407.326C120.342 408.311 119.868 409.217 119.133 409.873C118.398 410.529 117.452 410.891 116.473 410.891H88.2402C87.2609 410.891 86.3152 410.529 85.5803 409.873C84.8455 409.216 84.3717 408.311 84.2479 407.326L76.7051 347.337H84.5527Z" fill="#E5C66E"/>
<path d="M88.2367 410.89H116.469C117.449 410.89 118.394 410.528 119.129 409.872C119.864 409.216 120.338 408.31 120.462 407.325L128.003 347.335H76.7051L84.2468 407.325C84.3705 408.31 84.8439 409.215 85.5783 409.871C86.3127 410.527 87.2578 410.89 88.2367 410.89V410.89Z" stroke="#283035" stroke-width="6" stroke-linecap="round" stroke-linejoin="round"/>
<path d="M126.069 393.62L129.716 364.606H74.9916L78.6388 393.62H126.069Z" fill="#5CBF84"/>
<path d="M126.069 393.62L129.716 364.606H74.9916L78.6388 393.62H126.069Z" fill="#4FB277"/>
<path d="M125.842 390.268L128.901 364.606H83.011L85.8285 388.232C85.8955 388.793 86.1631 389.31 86.5806 389.686C86.9981 390.061 87.5367 390.268 88.0946 390.268H125.842Z" fill="#5CBF84"/>
<path d="M126.069 393.62L129.716 364.606H74.9916L78.6388 393.62H126.069Z" stroke="#283035" stroke-width="6" stroke-linecap="round" stroke-linejoin="round"/>
<path d="M73.409 347.336H131.299C134.792 347.336 137.624 344.465 137.624 340.923C137.624 337.381 134.792 334.51 131.299 334.51H73.409C69.9158 334.51 67.0841 337.381 67.0841 340.923C67.0841 344.465 69.9158 347.336 73.409 347.336Z" fill="#5CBF84"/>
<path d="M73.409 347.336H131.299C134.792 347.336 137.624 344.465 137.624 340.923C137.624 337.381 134.792 334.51 131.299 334.51H73.409C69.9158 334.51 67.0841 337.381 67.0841 340.923C67.0841 344.465 69.9158 347.336 73.409 347.336Z" fill="#4FB277"/>
<path d="M79.9502 344.567H132.664C135.403 344.567 137.623 342.315 137.623 339.538C137.623 336.761 135.403 334.51 132.664 334.51H79.9502C77.2112 334.51 74.9908 336.761 74.9908 339.538C74.9908 342.315 77.2112 344.567 79.9502 344.567Z" fill="#5CBF84"/>
<path d="M73.409 347.336H131.299C134.792 347.336 137.624 344.465 137.624 340.923C137.624 337.381 134.792 334.51 131.299 334.51H73.409C69.9158 334.51 67.0841 337.381 67.0841 340.923C67.0841 344.465 69.9158 347.336 73.409 347.336Z" stroke="#283035" stroke-width="6" stroke-linecap="round" stroke-linejoin="round"/>
<path d="M79.3534 334.51H125.353L124.443 327.515H80.2642L79.3534 334.51Z" fill="#5CBF84"/>
<path d="M80.2642 334.989H93.7606L90.5659 341.985H79.3534L80.2642 334.989Z" fill="#54AF79"/>
<path d="M79.3534 334.51H125.353L124.443 327.515H80.2642L79.3534 334.51Z" stroke="#283035" stroke-width="6" stroke-linecap="round" stroke-linejoin="round"/>
<path d="M178.653 254.102H372.875C375.485 254.102 377.988 255.153 379.833 257.024C381.678 258.895 382.715 261.433 382.715 264.079V394.022H168.815V264.078C168.815 261.433 169.852 258.896 171.696 257.025C173.541 255.154 176.043 254.103 178.653 254.102Z" fill="#D2DCE6"/>
<path d="M178.653 254.102H372.875C375.485 254.102 377.988 255.153 379.833 257.024C381.678 258.895 382.715 261.433 382.715 264.079V394.022H168.815V264.078C168.815 261.433 169.852 258.896 171.696 257.025C173.541 255.154 176.043 254.103 178.653 254.102V254.102Z" stroke="#283035" stroke-width="6" stroke-linecap="round" stroke-linejoin="round"/>
<path d="M366.615 377.863V270.591H184.915V377.863H366.615Z" fill="#6F6F6F"/>
<path opacity="0.3" d="M290.379 360.75H320.279" stroke="white" stroke-width="6" stroke-linecap="round" stroke-linejoin="round"/>
<g opacity="0.3">
<path opacity="0.3" d="M363.274 327.404C363.849 327.368 364.42 327.528 364.894 327.861C365.368 328.193 365.719 328.678 365.888 329.237V322.558C365.257 322.371 364.602 322.275 363.945 322.271H363.274C361.827 322.271 361.104 323.005 361.104 324.471V325.256C361.104 326.671 361.827 327.404 363.274 327.404Z" fill="white"/>
<path opacity="0.3" d="M365.888 359.416C365.715 359.972 365.364 360.453 364.89 360.783C364.416 361.113 363.847 361.272 363.274 361.235C361.827 361.235 361.104 361.968 361.104 363.434V364.22C361.104 365.686 361.827 366.419 363.274 366.42H363.945C364.602 366.417 365.257 366.32 365.888 366.133V359.416Z" fill="white"/>
</g>
<path d="M366.615 377.863V270.591H184.915V377.863H366.615Z" stroke="#283035" stroke-width="6" stroke-linecap="round" stroke-linejoin="round"/>
<path d="M145.212 394.108H406.32C406.93 394.108 407.515 394.354 407.946 394.791C408.377 395.228 408.62 395.822 408.62 396.44V399.233C408.62 402.326 407.408 405.291 405.251 407.478C403.095 409.665 400.17 410.893 397.12 410.893H154.412C151.362 410.893 148.437 409.665 146.281 407.478C144.124 405.291 142.912 402.326 142.912 399.233V396.44C142.912 395.822 143.155 395.228 143.586 394.791C144.017 394.354 144.602 394.108 145.212 394.108Z" fill="#E5E5E5"/>
<path d="M397.117 405.644H154.41C151.652 405.642 148.987 404.635 146.901 402.806C144.815 400.977 143.447 398.449 143.047 395.682C142.961 395.925 142.915 396.182 142.912 396.44V399.233C142.912 402.326 144.124 405.291 146.281 407.478C148.437 409.665 151.362 410.893 154.412 410.893H397.12C400.17 410.893 403.095 409.665 405.251 407.478C407.408 405.291 408.62 402.326 408.62 399.233V396.44C408.617 396.182 408.571 395.925 408.485 395.682C408.085 398.45 406.716 400.979 404.629 402.807C402.542 404.636 399.876 405.643 397.117 405.644Z" fill="#CFD1D0"/>
<path d="M145.212 394.108H406.32C406.93 394.108 407.515 394.354 407.946 394.791C408.377 395.228 408.62 395.822 408.62 396.44V399.233C408.62 402.326 407.408 405.291 405.251 407.478C403.095 409.665 400.17 410.893 397.12 410.893H154.412C151.362 410.893 148.437 409.665 146.281 407.478C144.124 405.291 142.912 402.326 142.912 399.233V396.44C142.912 395.822 143.155 395.228 143.586 394.791C144.017 394.354 144.602 394.108 145.212 394.108Z" stroke="#283035" stroke-width="6" stroke-linecap="round" stroke-linejoin="round"/>
<path d="M251.615 394.023H299.915C299.915 395.26 299.43 396.446 298.568 397.32C297.705 398.195 296.535 398.687 295.315 398.687H256.215C254.995 398.687 253.825 398.195 252.962 397.32C252.1 396.446 251.615 395.26 251.615 394.023Z" fill="#686B6D"/>
<path d="M251.615 394.023H299.915C299.915 395.26 299.43 396.446 298.568 397.32C297.705 398.195 296.535 398.687 295.315 398.687H256.215C254.995 398.687 253.825 398.195 252.962 397.32C252.1 396.446 251.615 395.26 251.615 394.023Z" stroke="#283035" stroke-width="4" stroke-linecap="round" stroke-linejoin="round"/>
<path d="M275.312 266.792C277.853 266.792 279.912 264.704 279.912 262.128C279.912 259.552 277.853 257.464 275.312 257.464C272.772 257.464 270.712 259.552 270.712 262.128C270.712 264.704 272.772 266.792 275.312 266.792Z" fill="#686B6D"/>
<path d="M275.312 266.792C277.853 266.792 279.912 264.704 279.912 262.128C279.912 259.552 277.853 257.464 275.312 257.464C272.772 257.464 270.712 259.552 270.712 262.128C270.712 264.704 272.772 266.792 275.312 266.792Z" stroke="#283035" stroke-width="4" stroke-linecap="round" stroke-linejoin="round"/>
<path d="M414.652 410.949C414.678 406.483 416.445 402.21 419.569 399.062C422.692 395.914 426.917 394.147 431.321 394.147C435.725 394.147 439.95 395.914 443.073 399.062C446.196 402.21 447.964 406.483 447.99 410.949H414.652Z" fill="#E5E5E5"/>
<path d="M431.321 405.61C433.705 405.633 436.066 405.139 438.246 404.16C440.425 403.181 442.373 401.74 443.958 399.934C442.394 398.088 440.455 396.606 438.274 395.59C436.093 394.574 433.721 394.048 431.321 394.048C428.921 394.048 426.549 394.574 424.368 395.59C422.187 396.606 420.248 398.088 418.685 399.934C420.269 401.74 422.217 403.181 424.397 404.16C426.576 405.139 428.938 405.633 431.321 405.61Z" fill="#CFD1D0"/>
<path d="M414.652 410.949C414.678 406.483 416.445 402.21 419.569 399.062C422.692 395.914 426.917 394.147 431.321 394.147C435.725 394.147 439.95 395.914 443.073 399.062C446.196 402.21 447.964 406.483 447.99 410.949H414.652Z" stroke="#283035" stroke-width="6" stroke-linecap="round" stroke-linejoin="round"/>
<g style="mix-blend-mode:multiply" opacity="0.14">
<path d="M303.024 291.372H215.634C213.091 291.372 211.029 293.463 211.029 296.041V364.826C211.029 367.404 213.091 369.494 215.634 369.494H303.024C305.568 369.494 307.629 367.404 307.629 364.826V296.041C307.629 293.463 305.568 291.372 303.024 291.372Z" fill="black"/>
</g>
<path d="M298.521 287.292H211.13C208.587 287.292 206.525 289.382 206.525 291.96V360.745C206.525 363.323 208.587 365.413 211.13 365.413H298.521C301.064 365.413 303.125 363.323 303.125 360.745V291.96C303.125 289.382 301.064 287.292 298.521 287.292Z" fill="#353F49"/>
<path d="M298.521 287.292H211.13C208.587 287.292 206.525 289.382 206.525 291.96V360.745C206.525 363.323 208.587 365.413 211.13 365.413H298.521C301.064 365.413 303.125 363.323 303.125 360.745V291.96C303.125 289.382 301.064 287.292 298.521 287.292Z" stroke="#283035" stroke-width="4" stroke-linecap="round" stroke-linejoin="round"/>
<path d="M211.129 287.292H298.521C299.742 287.292 300.913 287.783 301.776 288.659C302.64 289.534 303.125 290.722 303.125 291.96V298.952H206.525V291.96C206.525 290.722 207.01 289.535 207.874 288.659C208.737 287.784 209.908 287.292 211.129 287.292Z" fill="#EAEEEF"/>
<path d="M211.129 287.292H298.521C299.742 287.292 300.913 287.783 301.776 288.659C302.64 289.534 303.125 290.722 303.125 291.96V298.952H206.525V291.96C206.525 290.722 207.01 289.535 207.874 288.659C208.737 287.784 209.908 287.292 211.129 287.292Z" stroke="#283035" stroke-width="4" stroke-linecap="round" stroke-linejoin="round"/>
<path opacity="0.35" d="M214.766 294.943C215.759 294.943 216.563 294.128 216.563 293.121C216.563 292.115 215.759 291.3 214.766 291.3C213.774 291.3 212.97 292.115 212.97 293.121C212.97 294.128 213.774 294.943 214.766 294.943Z" fill="#283035"/>
<path opacity="0.35" d="M220.421 294.943C221.413 294.943 222.217 294.128 222.217 293.121C222.217 292.115 221.413 291.3 220.421 291.3C219.428 291.3 218.624 292.115 218.624 293.121C218.624 294.128 219.428 294.943 220.421 294.943Z" fill="#283035"/>
<path opacity="0.35" d="M225.788 294.943C226.78 294.943 227.584 294.128 227.584 293.121C227.584 292.115 226.78 291.3 225.788 291.3C224.795 291.3 223.991 292.115 223.991 293.121C223.991 294.128 224.795 294.943 225.788 294.943Z" fill="#283035"/>
<path d="M211.029 303.032H217.354" stroke="#46BB86" stroke-width="3" stroke-miterlimit="10"/>
<path d="M219.654 303.032H236.904" stroke="#46BB86" stroke-width="3" stroke-miterlimit="10"/>
<path d="M211.029 307.697H236.904" stroke="#389ABE" stroke-width="3" stroke-miterlimit="10"/>
<path d="M216.204 312.36H228.854" stroke="#E5C689" stroke-width="3" stroke-miterlimit="10"/>
<path d="M231.154 312.36H244.954" stroke="#F2F3F4" stroke-width="3" stroke-miterlimit="10"/>
<path d="M223.104 317.024H249.554" stroke="#F2F3F4" stroke-width="3" stroke-miterlimit="10"/>
<path d="M223.104 321.688H242.654" stroke="#FFA49F" stroke-width="3" stroke-miterlimit="10"/>
<path d="M216.204 326.353H244.954" stroke="#F2F3F4" stroke-width="3" stroke-miterlimit="10"/>
<path d="M211.029 330.433H226.554" stroke="#389ABE" stroke-width="3" stroke-miterlimit="10"/>
<g opacity="0.3">
<path opacity="0.3" d="M344.795 353.019C344.795 350.715 343.916 349.092 342.16 348.097C340.92 347.416 340.404 346.892 340.404 345.688V343.648C340.404 342.234 341.024 341.92 342.108 341.186C343.916 340.401 344.795 338.726 344.795 336.212V331.76C344.795 328.199 346.086 325.58 347.945 324.48C349.336 323.475 350.989 322.91 352.697 322.857H353.369C354.814 322.857 355.538 323.59 355.538 325.056V325.839C355.538 327.253 354.815 327.986 353.369 327.986C351.356 327.986 350.373 329.452 350.373 332.437V337.936C350.424 339.271 350.096 340.593 349.427 341.744C348.759 342.895 347.779 343.828 346.603 344.43L346.137 344.587V344.692C346.667 344.851 347.16 345.118 347.583 345.478C348.875 346.263 350.373 348.096 350.373 351.29V357.418C350.373 360.35 351.354 361.817 353.369 361.817C354.814 361.817 355.538 362.55 355.538 364.016V364.802C355.538 366.268 354.815 367.001 353.369 367.002H352.697C350.989 366.949 349.336 366.384 347.945 365.378C346.086 364.278 344.795 361.608 344.795 358.099V353.019Z" fill="white"/>
</g>
<path d="M85.6307 381.097L86.7807 379.963C91.1447 383.549 96.5916 385.507 102.209 385.507C107.827 385.507 113.274 383.549 117.638 379.963L119.075 381.388" stroke="#283035" stroke-width="3" stroke-linecap="round" stroke-linejoin="round"/>
<path d="M98.6838 375.219C98.6838 374.557 98.4244 373.922 97.9628 373.454C97.5012 372.986 96.875 372.723 96.2222 372.723V372.723C95.5693 372.723 94.9432 372.986 94.4816 373.454C94.02 373.922 93.7606 374.557 93.7606 375.219V377.505" stroke="#283035" stroke-width="3" stroke-linecap="round" stroke-linejoin="round"/>
<path d="M106.023 375.219C106.023 374.557 106.282 373.922 106.744 373.454C107.206 372.986 107.832 372.723 108.485 372.723V372.723C109.137 372.723 109.764 372.986 110.225 373.454C110.687 373.922 110.946 374.557 110.946 375.219V377.505" stroke="#283035" stroke-width="3" stroke-linecap="round" stroke-linejoin="round"/>
<path d="M522.368 404.555L516.673 405.359L520.313 410.731L522.368 404.555Z" fill="#E5E5E5"/>
<path d="M522.368 404.555L516.673 405.359L520.313 410.731L522.368 404.555Z" stroke="#283035" stroke-width="4" stroke-linecap="round" stroke-linejoin="round"/>
<path d="M506.369 335.158H461.634C458.744 335.158 456.401 337.534 456.401 340.464V405.643C456.401 408.573 458.744 410.948 461.634 410.948H506.369C509.258 410.948 511.601 408.573 511.601 405.643V340.464C511.601 337.534 509.258 335.158 506.369 335.158Z" fill="#E5E5E5"/>
<path d="M506.369 335.158H505.706C505.801 335.559 505.85 335.97 505.851 336.383V401.562C505.851 402.969 505.3 404.319 504.319 405.314C503.337 406.308 502.006 406.867 500.619 406.867H456.55C456.822 408.029 457.472 409.063 458.395 409.804C459.318 410.544 460.46 410.947 461.637 410.948H506.372C507.76 410.948 509.091 410.389 510.072 409.395C511.053 408.4 511.605 407.05 511.605 405.643V340.464C511.605 339.767 511.469 339.077 511.206 338.433C510.943 337.789 510.557 337.204 510.071 336.711C509.585 336.218 509.007 335.828 508.372 335.561C507.737 335.295 507.056 335.158 506.369 335.158Z" fill="#CFD1D0"/>
<path d="M506.369 335.158H461.634C458.744 335.158 456.401 337.534 456.401 340.464V405.643C456.401 408.573 458.744 410.948 461.634 410.948H506.369C509.258 410.948 511.601 408.573 511.601 405.643V340.464C511.601 337.534 509.258 335.158 506.369 335.158Z" stroke="#283035" stroke-width="6" stroke-linecap="round" stroke-linejoin="round"/>
<path d="M493.201 330.76H488.601V329.011C488.601 327.774 488.116 326.588 487.254 325.713C486.391 324.839 485.221 324.347 484.001 324.347C482.781 324.347 481.611 324.839 480.748 325.713C479.886 326.588 479.401 327.774 479.401 329.011V330.76H474.801C473.581 330.76 472.411 331.252 471.548 332.126C470.686 333.001 470.201 334.187 470.201 335.424C470.201 336.661 470.686 337.848 471.548 338.722C472.411 339.597 473.581 340.088 474.801 340.088H493.201C494.421 340.088 495.591 339.597 496.454 338.722C497.316 337.848 497.801 336.661 497.801 335.424C497.801 334.187 497.316 333.001 496.454 332.126C495.591 331.252 494.421 330.76 493.201 330.76Z" fill="#F7B66F"/>
<path d="M495.338 331.297C495.525 331.988 495.552 332.713 495.416 333.416C495.28 334.12 494.986 334.781 494.557 335.35C494.127 335.919 493.574 336.38 492.94 336.696C492.305 337.012 491.608 337.176 490.901 337.173H472.501C471.756 337.174 471.023 336.99 470.364 336.637C470.627 337.627 471.204 338.501 472.006 339.125C472.808 339.749 473.79 340.087 474.801 340.088H493.201C494.229 340.087 495.227 339.737 496.035 339.094C496.844 338.451 497.417 337.552 497.663 336.54C497.909 335.529 497.814 334.463 497.392 333.512C496.971 332.562 496.248 331.782 495.338 331.297Z" fill="#EDA762"/>
<path d="M486.301 326.096V327.845H488.451C488.29 327.215 488.002 326.626 487.603 326.116C487.205 325.606 486.706 325.186 486.138 324.884C486.245 325.279 486.3 325.686 486.301 326.096Z" fill="#EDA762"/>
<path d="M493.201 330.76H488.601V329.011C488.601 327.774 488.116 326.588 487.254 325.713C486.391 324.839 485.221 324.347 484.001 324.347C482.781 324.347 481.611 324.839 480.748 325.713C479.886 326.588 479.401 327.774 479.401 329.011V330.76H474.801C473.581 330.76 472.411 331.252 471.548 332.126C470.686 333.001 470.201 334.187 470.201 335.424C470.201 336.661 470.686 337.848 471.548 338.722C472.411 339.597 473.581 340.088 474.801 340.088H493.201C494.421 340.088 495.591 339.597 496.454 338.722C497.316 337.848 497.801 336.661 497.801 335.424C497.801 334.187 497.316 333.001 496.454 332.126C495.591 331.252 494.421 330.76 493.201 330.76Z" stroke="#283035" stroke-width="6" stroke-linecap="round" stroke-linejoin="round"/>
<path d="M484.001 356.995C486.647 356.995 488.793 354.82 488.793 352.137C488.793 349.454 486.647 347.279 484.001 347.279C481.355 347.279 479.21 349.454 479.21 352.137C479.21 354.82 481.355 356.995 484.001 356.995Z" fill="#8EAFBF"/>
<path d="M484.001 356.995C486.647 356.995 488.793 354.82 488.793 352.137C488.793 349.454 486.647 347.279 484.001 347.279C481.355 347.279 479.21 349.454 479.21 352.137C479.21 354.82 481.355 356.995 484.001 356.995Z" stroke="#283035" stroke-width="6" stroke-linecap="round" stroke-linejoin="round"/>
<path d="M465.729 367.101H477.229" stroke="#283035" stroke-width="6" stroke-linecap="round" stroke-linejoin="round"/>
<path d="M465.729 382.939H477.229" stroke="#283035" stroke-width="6" stroke-linecap="round" stroke-linejoin="round"/>
<path d="M465.729 398.777H477.229" stroke="#283035" stroke-width="6" stroke-linecap="round" stroke-linejoin="round"/>
<path d="M484.827 366.477L487.825 370.52L496.798 363.682" stroke="#8BAFC1" stroke-width="4" stroke-linecap="round" stroke-linejoin="round"/>
<path d="M484.827 382.315L487.825 386.358L496.798 379.519" stroke="#8BAFC1" stroke-width="4" stroke-linecap="round" stroke-linejoin="round"/>
<path d="M517.296 367.6L511.601 368.404L516.673 405.36L522.368 404.556L517.296 367.6Z" fill="#3BBC88"/>
<path d="M517.296 367.6L511.601 368.404L516.673 405.36L522.368 404.556L517.296 367.6Z" stroke="#283035" stroke-width="4" stroke-linecap="round" stroke-linejoin="round"/>
<path d="M515.192 361.73L511.776 362.213L512.57 367.984L515.985 367.502L515.192 361.73Z" fill="#E5E5E5"/>
<path d="M515.192 361.73L511.776 362.213L512.57 367.984L515.985 367.502L515.192 361.73Z" stroke="#283035" stroke-width="4" stroke-linecap="round" stroke-linejoin="round"/>
<path d="M522.445 382.183C521.801 381.107 521.344 379.927 521.096 378.694C520.46 375.527 522.029 373.716 521.181 371.913C520.843 371.194 520.679 370.213 518.139 369.841" stroke="#283035" stroke-width="4" stroke-linecap="round" stroke-linejoin="round"/>
<path d="M529.431 410.948H544.237" stroke="#283035" stroke-width="6" stroke-linecap="round" stroke-linejoin="round"/>
<path d="M134.741 410.948H522.963" stroke="#283035" stroke-width="6" stroke-linecap="round" stroke-linejoin="round"/>
<path d="M65.9812 410.948H128.004" stroke="#283035" stroke-width="6" stroke-linecap="round" stroke-linejoin="round"/>
<path d="M46.1915 410.948H59.5126" stroke="#283035" stroke-width="6" stroke-linecap="round" stroke-linejoin="round"/>
</svg>
